<?xml version="1.0" encoding="utf-8"?>
<!-- Generator: Adobe Illustrator 23.0.6, SVG Export Plug-In . SVG Version: 6.00 Build 0)  -->
<svg version="1.1" xmlns="http://www.w3.org/2000/svg" xmlns:xlink="http://www.w3.org/1999/xlink" x="0px" y="0px"
	 viewBox="0 0 800 600" style="enable-background:new 0 0 800 600;" xml:space="preserve">
<style type="text/css">
	.st0{fill:url(#SVGID_1_);}
	.st1{fill:url(#SVGID_2_);}
	.st2{clip-path:url(#SVGID_4_);}
	.st3{opacity:0.74;clip-path:url(#SVGID_6_);fill:url(#SVGID_7_);}
	.st4{opacity:0.74;clip-path:url(#SVGID_6_);fill:url(#SVGID_8_);}
	.st5{opacity:0.74;clip-path:url(#SVGID_6_);fill:url(#SVGID_9_);}
	.st6{opacity:0.48;clip-path:url(#SVGID_6_);fill:url(#SVGID_10_);}
	.st7{clip-path:url(#SVGID_6_);fill:url(#SVGID_11_);}
	.st8{opacity:0.56;clip-path:url(#SVGID_6_);}
	.st9{fill:url(#SVGID_12_);}
	.st10{opacity:0.26;clip-path:url(#SVGID_6_);}
	.st11{fill:url(#SVGID_13_);}
	.st12{clip-path:url(#SVGID_6_);fill:url(#SVGID_14_);}
	.st13{clip-path:url(#SVGID_6_);fill:url(#SVGID_15_);}
	.st14{opacity:0.56;clip-path:url(#SVGID_6_);fill:url(#SVGID_16_);}
	.st15{opacity:0.56;clip-path:url(#SVGID_6_);fill:url(#SVGID_17_);}
	.st16{opacity:0.74;clip-path:url(#SVGID_6_);fill:url(#SVGID_18_);}
	.st17{opacity:0.91;clip-path:url(#SVGID_6_);fill:url(#SVGID_19_);}
	.st18{fill:#60A9E0;}
</style>
<g id="BACKGROUND">
	<linearGradient id="SVGID_1_" gradientUnits="userSpaceOnUse" x1="396.8332" y1="109.2027" x2="404.8333" y2="591.2032">
		<stop  offset="0" style="stop-color:#F2F2F2"/>
		<stop  offset="0.4072" style="stop-color:#FAFAFA"/>
		<stop  offset="1" style="stop-color:#FFFFFF"/>
	</linearGradient>
	<rect class="st0" width="800" height="600"/>
</g>
<g id="OBJECTS_1_">
	<g>
		<g>
			<g>
				<g>
					<g>
						<g>
							<g>
								
									<linearGradient id="SVGID_2_" gradientUnits="userSpaceOnUse" x1="294.161" y1="2550.8992" x2="1093.661" y2="2550.8992" gradientTransform="matrix(1 0 0 1 -293.911 -2250.9883)">
									<stop  offset="0" style="stop-color:#EFC539"/>
									<stop  offset="1" style="stop-color:#DA0D6A"/>
								</linearGradient>
								<rect x="0.2" y="0.1" class="st1" width="799.5" height="599.7"/>
							</g>
						</g>
					</g>
				</g>
			</g>
		</g>
	</g>
	<g>
		<defs>
			<rect id="SVGID_3_" x="1" y="0.1" width="798.1" height="599"/>
		</defs>
		<clipPath id="SVGID_4_">
			<use xlink:href="#SVGID_3_"  style="overflow:visible;"/>
		</clipPath>
		<g class="st2">
			<defs>
				<rect id="SVGID_5_" x="-43" y="0.4" width="886" height="599.3"/>
			</defs>
			<clipPath id="SVGID_6_">
				<use xlink:href="#SVGID_5_"  style="overflow:visible;"/>
			</clipPath>
			
				<linearGradient id="SVGID_7_" gradientUnits="userSpaceOnUse" x1="2672.8638" y1="648.3851" x2="2169.9736" y2="-222.6461" gradientTransform="matrix(0 1 -1 0 499.5182 -2257.5142)">
				<stop  offset="0" style="stop-color:#EFC539"/>
				<stop  offset="1" style="stop-color:#DA0D6A"/>
			</linearGradient>
			<path class="st3" d="M771.9-1.4c0,0-284,196.1-336.4,409.1c-70,285-547.7,311-485.1,115.5C-21.4,435,19.5-114,19.5-114L771.9-1.4
				z"/>
			
				<linearGradient id="SVGID_8_" gradientUnits="userSpaceOnUse" x1="2780.7791" y1="578.2086" x2="2072.3091" y2="-130.2614" gradientTransform="matrix(0 1 -1 0 499.5182 -2257.5142)">
				<stop  offset="0" style="stop-color:#EFC539"/>
				<stop  offset="1" style="stop-color:#DA0D6A"/>
			</linearGradient>
			<path class="st4" d="M813.6-1.4c0,0-284,196.1-336.4,409.1c-70,285-547.7,311-485.1,115.5C20.3,435,61.2-114,61.2-114L813.6-1.4z
				"/>
			
				<linearGradient id="SVGID_9_" gradientUnits="userSpaceOnUse" x1="2777.7793" y1="512.2119" x2="2069.3093" y2="-196.2581" gradientTransform="matrix(0 1 -1 0 499.5182 -2257.5142)">
				<stop  offset="0" style="stop-color:#EFC539"/>
				<stop  offset="1" style="stop-color:#DA0D6A"/>
			</linearGradient>
			<path class="st5" d="M879.6-4.4c0,0-284,196.1-336.4,409.1c-70,285-547.7,311-485.1,115.5C86.3,432,127.2-117,127.2-117
				L879.6-4.4z"/>
			
				<linearGradient id="SVGID_10_" gradientUnits="userSpaceOnUse" x1="2816.7773" y1="389.218" x2="2108.3074" y2="-319.2519" gradientTransform="matrix(0 1 -1 0 499.5182 -2257.5142)">
				<stop  offset="0" style="stop-color:#EFC539"/>
				<stop  offset="1" style="stop-color:#DA0D6A"/>
			</linearGradient>
			<path class="st6" d="M1002.6,34.6c0,0-284,196.1-336.4,409.1c-70,285-547.7,311-485.1,115.5C209.3,471,250.2-78,250.2-78
				L1002.6,34.6z"/>
			
				<linearGradient id="SVGID_11_" gradientUnits="userSpaceOnUse" x1="2525.2871" y1="576.8331" x2="2525.2871" y2="-250.3086" gradientTransform="matrix(0 1 -1 0 499.5182 -2257.5142)">
				<stop  offset="0" style="stop-color:#EFC539"/>
				<stop  offset="0.1976" style="stop-color:#EFC23A"/>
				<stop  offset="0.3475" style="stop-color:#EEB83C"/>
				<stop  offset="0.4817" style="stop-color:#ECA841"/>
				<stop  offset="0.6067" style="stop-color:#E99147"/>
				<stop  offset="0.7254" style="stop-color:#E6734F"/>
				<stop  offset="0.8393" style="stop-color:#E24F58"/>
				<stop  offset="0.9473" style="stop-color:#DD2564"/>
				<stop  offset="1" style="stop-color:#DA0D6A"/>
			</linearGradient>
			<path class="st7" d="M749.8-1.4c0,0-284,196.1-336.4,409.1c-70,285-547.7,311-485.1,115.5C-43.5,435-2.6-114-2.6-114L749.8-1.4z"
				/>
			<g class="st8">
				
					<linearGradient id="SVGID_12_" gradientUnits="userSpaceOnUse" x1="669.4232" y1="2596.4202" x2="1376.5042" y2="2596.4202" gradientTransform="matrix(1 0 0 1 -293.911 -2250.9883)">
					<stop  offset="0" style="stop-color:#EFC539"/>
					<stop  offset="1" style="stop-color:#DA0D6A"/>
				</linearGradient>
				<path class="st9" d="M375.5,716.9c0,0,80.6-310.1,326.3-291.5C947.5,443.9,951.7,50.1,965.3-26h117.3v695.5v47.4L375.5,716.9z"
					/>
			</g>
			<g class="st10">
				
					<linearGradient id="SVGID_13_" gradientUnits="userSpaceOnUse" x1="655.9239" y1="2549.9224" x2="1363.0048" y2="2549.9224" gradientTransform="matrix(1 0 0 1 -293.911 -2250.9883)">
					<stop  offset="0" style="stop-color:#EFC539"/>
					<stop  offset="1" style="stop-color:#DA0D6A"/>
				</linearGradient>
				<path class="st11" d="M362,670.4c0,0,80.6-310.1,326.3-291.5C934,397.4,938.2,3.6,951.8-72.5h117.3V623v47.4L362,670.4z"/>
			</g>
			
				<linearGradient id="SVGID_14_" gradientUnits="userSpaceOnUse" x1="675.6566" y1="2622.7751" x2="1382.7372" y2="2622.7751" gradientTransform="matrix(1 0 0 1 -293.911 -2250.9883)">
				<stop  offset="0" style="stop-color:#EFC539"/>
				<stop  offset="1" style="stop-color:#DA0D6A"/>
			</linearGradient>
			<path class="st12" d="M381.7,743.2c0,0,80.6-310.1,326.3-291.5C953.7,470.2,957.9,76.5,971.6,0.4h117.3v695.5v47.4L381.7,743.2z"
				/>
			
				<linearGradient id="SVGID_15_" gradientUnits="userSpaceOnUse" x1="223.7328" y1="2412.8918" x2="913.3607" y2="2412.8918" gradientTransform="matrix(1 0 0 1 -293.911 -2250.9883)">
				<stop  offset="0" style="stop-color:#EFC539"/>
				<stop  offset="1" style="stop-color:#DA0D6A"/>
			</linearGradient>
			<path class="st13" d="M-70.2-75.1v464c0,0,152,122.2,312.1-156.4C402.1-46,466.9-12.3,619.4-91.8L-70.2-75.1z"/>
			
				<linearGradient id="SVGID_16_" gradientUnits="userSpaceOnUse" x1="235.1575" y1="2437.0918" x2="924.7854" y2="2437.0918" gradientTransform="matrix(1 0 0 1 -293.911 -2250.9883)">
				<stop  offset="0" style="stop-color:#EFC539"/>
				<stop  offset="1" style="stop-color:#DA0D6A"/>
			</linearGradient>
			<path class="st14" d="M-58.8-50.9v464c0,0,152,122.2,312.1-156.4C413.5-21.8,478.3,11.9,630.9-67.6L-58.8-50.9z"/>
			
				<linearGradient id="SVGID_17_" gradientUnits="userSpaceOnUse" x1="115.1635" y1="2371.095" x2="804.7914" y2="2371.095" gradientTransform="matrix(1 0 0 1 -293.911 -2250.9883)">
				<stop  offset="0" style="stop-color:#EFC539"/>
				<stop  offset="1" style="stop-color:#DA0D6A"/>
			</linearGradient>
			<path class="st15" d="M-178.7-116.9v464c0,0,152,122.2,312.1-156.4c160.1-278.6,225-244.9,377.5-324.4L-178.7-116.9z"/>
			
				<linearGradient id="SVGID_18_" gradientUnits="userSpaceOnUse" x1="186.6701" y1="2418.2695" x2="876.298" y2="2418.2695" gradientTransform="matrix(1 0 0 1 -293.911 -2250.9883)">
				<stop  offset="0" style="stop-color:#EFC539"/>
				<stop  offset="1" style="stop-color:#DA0D6A"/>
			</linearGradient>
			<path class="st16" d="M-107.2-69.7v464c0,0,152,122.2,312.1-156.4C365-40.7,429.9-6.9,582.4-86.5L-107.2-69.7z"/>
			
				<linearGradient id="SVGID_19_" gradientUnits="userSpaceOnUse" x1="158.9626" y1="2399.4475" x2="848.5905" y2="2399.4475" gradientTransform="matrix(1 0 0 1 -293.911 -2250.9883)">
				<stop  offset="0" style="stop-color:#EFC539"/>
				<stop  offset="1" style="stop-color:#DA0D6A"/>
			</linearGradient>
			<path class="st17" d="M-134.9-88.5v464c0,0,152,122.2,312.1-156.4c160.1-278.6,225-244.9,377.5-324.4L-134.9-88.5z"/>
		</g>
	</g>
	<g>
		<path class="st18" d="M780.8,124.8"/>
	</g>
</g>
</svg>
